<svg fill="#000000" version="1.1" id="Capa_1" xmlns="http://www.w3.org/2000/svg" xmlns:xlink="http://www.w3.org/1999/xlink" viewBox="0 0 47 47" xml:space="preserve"><g id="SVGRepo_bgCarrier" stroke-width="0"></g><g id="SVGRepo_tracerCarrier" stroke-linecap="round" stroke-linejoin="round"></g><g id="SVGRepo_iconCarrier"> <g> <g> <path d="M23.5,0C10.542,0,0,10.541,0,23.5S10.542,47,23.5,47S47,36.459,47,23.5S36.458,0,23.5,0z M23.5,42.299 c-10.366,0-18.8-8.433-18.8-18.799S13.134,4.701,23.5,4.701S42.3,13.134,42.3,23.5S33.866,42.299,23.5,42.299z"></path> <path d="M30.242,15.779c0-3.721-3.025-6.747-6.745-6.747c-3.718,0-6.742,3.026-6.742,6.747v4.857H13.63V37.97h19.74V20.637h-3.128 V15.779z M26.868,20.637h-6.736V15.78c0-1.863,1.511-3.372,3.366-3.372c1.857,0,3.371,1.509,3.371,3.372L26.868,20.637 L26.868,20.637z"></path> </g> </g> </g></svg>